<svg width="50" height="64" viewBox="0 0 50 64" fill="none" xmlns="http://www.w3.org/2000/svg">
  <path d="M39.4954 44.4809C45.5608 40.0503 49.5 32.9072 49.5 24.8489C49.5 11.3984 38.528 0.5 25 0.5C11.472 0.5 0.5 11.3984 0.5 24.8489C0.5 32.9072 4.43922 40.0503 10.5046 44.4809C15.0147 47.8582 21.2284 53.0905 22.6562 61.4684C22.8485 62.5971 23.8068 63.5 25 63.5C26.1932 63.5 27.1515 62.5971 27.3438 61.4684C28.7716 53.0906 34.9853 47.8582 39.4954 44.4809Z" fill="white" stroke="black" />
  <path fill-rule="evenodd" clip-rule="evenodd" d="M17.4857 12.7767V13.9773L18.04 13.9601L18.5943 13.9429L18.6105 12.7594L18.6764 9.24H18.1059H17.5354L17.4857 12.7767ZM31.3876 12.6696C31.3879 14.0637 31.3851 14.0578 32.1859 14.3846C32.279 14.4226 32.3778 14.4397 32.4055 14.4226C32.4665 14.3849 32.5105 13.8431 32.5572 12.5497L32.6794 9H32.0769H31.4743L31.3876 12.6696ZM24.2693 14.0624C23.0258 14.4114 22.1328 15.2709 21.8262 16.4136C21.7153 16.8268 21.6988 17.7317 21.7952 18.1074C22.0156 18.9658 22.6302 19.7873 23.3811 20.2275C24.0921 20.6441 25.1792 20.7763 25.9614 20.5412C27.1341 20.1888 27.9591 19.3635 28.3076 18.1942C28.4485 17.7211 28.4488 16.8784 28.3081 16.3996C28.0078 15.3774 27.2246 14.5299 26.2429 14.1649C25.736 13.9764 24.757 13.9256 24.2693 14.0624ZM18.2907 14.6072C17.1723 15.2019 16.6749 15.7992 16.3709 16.9124C16.2021 17.5307 16.2292 18.6387 16.4315 19.3898C16.6719 20.2826 17.1309 21.1879 17.7863 22.0622C18.6884 23.2653 19.4841 23.984 20.4625 24.4794C20.6333 24.5658 20.7901 24.6643 20.8111 24.6984C20.8321 24.7323 20.8086 25.0228 20.7588 25.3436C20.703 25.7029 20.6521 26.6351 20.6264 27.7697C20.5794 29.8375 20.5612 29.7587 21.0094 29.434C21.4064 29.1464 21.8923 29.0127 22.5322 29.015C23.3728 29.0179 23.9862 29.2801 24.736 29.9568C24.9277 30.1298 25.1208 30.2713 25.165 30.2712C25.2093 30.2711 25.4233 30.1016 25.6406 29.8945C26.6 28.9805 27.8458 28.7715 28.9236 29.3439C29.1388 29.4581 29.3347 29.5315 29.3589 29.507C29.3832 29.4825 29.3784 28.667 29.3485 27.6948C29.3185 26.7225 29.2933 25.6574 29.2926 25.3279L29.2912 24.7287L29.7176 24.4656C30.8277 23.7807 31.8187 22.8766 32.6025 21.8338C33.1489 21.1068 33.3069 20.812 33.4758 20.2046C33.9027 18.6691 33.8807 17.0854 33.4199 16.1798C33.1011 15.5531 32.4324 14.8818 31.9088 14.6631C31.3037 14.4103 30.6088 14.8922 30.6086 15.5648C30.6083 16.0561 30.7661 16.404 31.1955 16.859L31.5971 17.2845L31.6167 18.0795L31.6361 18.8746L31.1906 19.3748C30.4717 20.1818 29.3937 20.886 28.0002 21.459C26.6565 22.0114 26.3392 22.0839 25.2455 22.0883C24.6357 22.0908 24.1668 22.063 23.9572 22.0119C22.8522 21.7429 21.5997 21.2717 20.8937 20.8594C19.9564 20.312 19.0978 19.4651 18.7415 18.7366C18.639 18.5271 18.5403 18.1949 18.505 17.9408C18.4286 17.3915 18.4893 17.2303 18.9807 16.6775C19.529 16.0604 19.6586 15.5241 19.3882 14.9906C19.1517 14.524 18.7265 14.3755 18.2907 14.6072ZM31.9708 23.5005C31.723 23.6984 31.5051 23.9209 31.4868 23.9949C31.4684 24.0689 31.4349 25.8822 31.4125 28.0243C31.387 30.4393 31.349 31.9477 31.3122 31.9941C31.2794 32.0355 31.1233 32.069 30.9629 32.069H30.673L30.6075 32.3237C30.4966 32.7549 30.2387 33.5207 30.0904 33.8591C30.0128 34.0362 29.9493 34.2048 29.9493 34.2336C29.9493 34.2628 31.1301 34.2861 32.6144 34.2861H35.2795L35.3858 34.1241C35.4747 33.9883 35.492 33.8252 35.492 33.1204C35.492 32.6575 35.4727 32.2315 35.4489 32.1739C35.4097 32.0784 35.2855 32.069 34.0616 32.069H32.7172L32.6794 31.7544C32.6585 31.5814 32.6286 29.6602 32.6129 27.485C32.5848 23.5978 32.5699 23.1408 32.471 23.1408C32.4438 23.1408 32.2187 23.3027 31.9708 23.5005ZM17.4857 27.7174C17.4857 31.2027 17.471 32.0066 17.406 32.0606C17.3543 32.1035 16.8353 32.1323 15.923 32.1428L14.5196 32.1589L14.5029 32.9506C14.484 33.8464 14.5534 34.1251 14.8202 34.2265C15.0293 34.306 20.0421 34.3074 20.0912 34.2279C20.132 34.1619 19.6526 32.2581 19.5668 32.1455C19.5282 32.0948 19.4055 32.0831 19.1708 32.1077C18.9 32.1359 18.8141 32.1234 18.7502 32.0464C18.6862 31.9694 18.6596 31.2176 18.62 28.3691C18.5925 26.3998 18.5458 24.6589 18.5162 24.5003C18.4866 24.3417 18.4087 24.1395 18.3432 24.0508C18.2241 23.8899 17.6293 23.4404 17.5354 23.4404C17.5081 23.4404 17.4857 25.365 17.4857 27.7174ZM21.9498 30.0484C21.4228 30.2638 21.0443 30.6169 20.8195 31.103C20.7144 31.3302 20.6915 31.4928 20.6915 32.0091C20.6915 32.5638 20.7153 32.7091 20.8924 33.2375C21.4862 35.0084 22.5217 36.9311 23.5322 38.1391L23.8229 38.4866L23.7052 38.8581C23.5674 39.2931 23.582 39.8983 23.7376 40.1992C23.9894 40.6861 24.7179 41.1429 25.2424 41.1427C25.7852 41.1425 26.4157 40.7181 26.6602 40.1883C26.8918 39.6867 26.7494 38.8007 26.328 38.121C26.2361 37.9727 25.8699 37.5665 25.5141 37.2184C24.6578 36.3803 24.6934 36.5122 24.6453 34.0018C24.6063 31.9671 24.5643 31.5407 24.3641 31.1467C24.1813 30.7867 23.7569 30.3708 23.3748 30.1772C23.0965 30.0362 22.9401 29.9991 22.579 29.9883C22.3291 29.9809 22.0498 30.0075 21.9498 30.0484ZM27.2387 30.0625C26.7099 30.2567 26.1455 30.7831 25.8994 31.3116C25.7572 31.6171 25.756 31.6358 25.7554 33.6309C25.7546 36.1939 25.7594 36.2221 26.2875 36.7728C26.5087 37.0035 26.7508 37.2799 26.8256 37.387C26.9003 37.4941 26.9933 37.581 27.0322 37.58C27.3164 37.573 28.9127 34.61 29.3079 33.3559C29.7431 31.975 29.6314 31.0541 28.957 30.4604C28.4635 30.0261 27.773 29.8662 27.2387 30.0625Z" fill="black" />
</svg>